<svg width="1803" height="564" viewBox="0 0 1803 564" fill="none" xmlns="http://www.w3.org/2000/svg">
<g filter="url(#filter0_d_106_18)">
<rect x="64" y="82" width="400" height="400" rx="65" fill="url(#paint0_linear_106_18)"/>
<g filter="url(#filter1_d_106_18)">
<path d="M122 193C122 170.909 139.909 153 162 153H235C246.046 153 255 161.954 255 173V371C255 393.091 237.091 411 215 411H162C139.909 411 122 393.091 122 371V193Z" fill="white"/>
<path d="M273 191C273 170.013 290.013 153 311 153C363.467 153 406 195.533 406 248V371C406 393.091 388.091 411 366 411H313C290.909 411 273 393.091 273 371V191Z" fill="white"/>
</g>
</g>
<path d="M696.6 380.3C692.2 380.3 688.5 378.9 685.5 376.1C682.7 373.1 681.3 369.4 681.3 365V291.2C681.3 279.8 679.2 270.5 675 263.3C670.8 256.1 665.1 250.8 657.9 247.4C650.9 243.8 642.8 242 633.6 242C625.2 242 617.6 243.7 610.8 247.1C604 250.5 598.6 255.1 594.6 260.9C590.6 266.5 588.6 273 588.6 280.4H569.7C569.7 267.8 572.7 256.6 578.7 246.8C584.9 236.8 593.3 228.9 603.9 223.1C614.5 217.3 626.4 214.4 639.6 214.4C653.4 214.4 665.7 217.4 676.5 223.4C687.5 229.2 696.1 237.8 702.3 249.2C708.7 260.6 711.9 274.6 711.9 291.2V365C711.9 369.4 710.4 373.1 707.4 376.1C704.6 378.9 701 380.3 696.6 380.3ZM573.3 380.3C568.9 380.3 565.2 378.9 562.2 376.1C559.4 373.1 558 369.4 558 365V231.2C558 226.6 559.4 222.9 562.2 220.1C565.2 217.3 568.9 215.9 573.3 215.9C577.9 215.9 581.6 217.3 584.4 220.1C587.2 222.9 588.6 226.6 588.6 231.2V365C588.6 369.4 587.2 373.1 584.4 376.1C581.6 378.9 577.9 380.3 573.3 380.3ZM839.592 381.2C822.992 381.2 808.192 377.7 795.192 370.7C782.392 363.5 772.292 353.7 764.892 341.3C757.692 328.7 754.092 314.3 754.092 298.1C754.092 281.7 757.492 267.3 764.292 254.9C771.292 242.3 780.892 232.5 793.092 225.5C805.292 218.3 819.292 214.7 835.092 214.7C850.692 214.7 864.092 218.2 875.292 225.2C886.492 232 894.992 241.5 900.792 253.7C906.792 265.7 909.792 279.6 909.792 295.4C909.792 299.2 908.492 302.4 905.892 305C903.292 307.4 899.992 308.6 895.992 308.6H775.092V284.6H895.092L882.792 293C882.592 283 880.592 274.1 876.792 266.3C872.992 258.3 867.592 252 860.592 247.4C853.592 242.8 845.092 240.5 835.092 240.5C823.692 240.5 813.892 243 805.692 248C797.692 253 791.592 259.9 787.392 268.7C783.192 277.3 781.092 287.1 781.092 298.1C781.092 309.1 783.592 318.9 788.592 327.5C793.592 336.1 800.492 342.9 809.292 347.9C818.092 352.9 828.192 355.4 839.592 355.4C845.792 355.4 852.092 354.3 858.492 352.1C865.092 349.7 870.392 347 874.392 344C877.392 341.8 880.592 340.7 883.992 340.7C887.592 340.5 890.692 341.5 893.292 343.7C896.692 346.7 898.492 350 898.692 353.6C898.892 357.2 897.292 360.3 893.892 362.9C887.092 368.3 878.592 372.7 868.392 376.1C858.392 379.5 848.792 381.2 839.592 381.2ZM1017.82 381.5C1004.02 381.5 991.62 378.6 980.62 372.8C969.82 366.8 961.22 358.1 954.82 346.7C948.62 335.3 945.52 321.3 945.52 304.7V230.9C945.52 226.5 946.92 222.9 949.72 220.1C952.72 217.1 956.42 215.6 960.82 215.6C965.22 215.6 968.82 217.1 971.62 220.1C974.62 222.9 976.12 226.5 976.12 230.9V304.7C976.12 315.9 978.22 325.2 982.42 332.6C986.62 339.8 992.32 345.2 999.52 348.8C1006.72 352.2 1014.82 353.9 1023.82 353.9C1032.42 353.9 1040.02 352.2 1046.62 348.8C1053.42 345.4 1058.82 340.8 1062.82 335C1066.82 329.2 1068.82 322.7 1068.82 315.5H1087.72C1087.72 327.9 1084.62 339.1 1078.42 349.1C1072.42 359.1 1064.12 367 1053.52 372.8C1043.12 378.6 1031.22 381.5 1017.82 381.5ZM1084.12 380C1079.72 380 1076.02 378.6 1073.02 375.8C1070.22 372.8 1068.82 369.1 1068.82 364.7V230.9C1068.82 226.3 1070.22 222.6 1073.02 219.8C1076.02 217 1079.72 215.6 1084.12 215.6C1088.72 215.6 1092.42 217 1095.22 219.8C1098.02 222.6 1099.42 226.3 1099.42 230.9V364.7C1099.42 369.1 1098.02 372.8 1095.22 375.8C1092.42 378.6 1088.72 380 1084.12 380ZM1235.81 381.2C1220.21 381.2 1206.21 377.6 1193.81 370.4C1181.41 363 1171.61 353 1164.41 340.4C1157.21 327.8 1153.51 313.6 1153.31 297.8V161C1153.31 156.4 1154.71 152.7 1157.51 149.9C1160.51 147.1 1164.21 145.7 1168.61 145.7C1173.21 145.7 1176.91 147.1 1179.71 149.9C1182.51 152.7 1183.91 156.4 1183.91 161V242C1190.91 233.6 1199.31 227 1209.11 222.2C1219.11 217.2 1230.01 214.7 1241.81 214.7C1256.41 214.7 1269.51 218.4 1281.11 225.8C1292.71 233 1301.81 242.9 1308.41 255.5C1315.21 267.9 1318.61 282 1318.61 297.8C1318.61 313.6 1314.91 327.8 1307.51 340.4C1300.31 353 1290.51 363 1278.11 370.4C1265.71 377.6 1251.61 381.2 1235.81 381.2ZM1235.81 354.2C1246.01 354.2 1255.11 351.8 1263.11 347C1271.11 342 1277.41 335.2 1282.01 326.6C1286.81 318 1289.21 308.4 1289.21 297.8C1289.21 287 1286.81 277.4 1282.01 269C1277.41 260.6 1271.11 254 1263.11 249.2C1255.11 244.2 1246.01 241.7 1235.81 241.7C1225.81 241.7 1216.71 244.2 1208.51 249.2C1200.51 254 1194.21 260.6 1189.61 269C1185.01 277.4 1182.71 287 1182.71 297.8C1182.71 308.4 1185.01 318 1189.61 326.6C1194.21 335.2 1200.51 342 1208.51 347C1216.71 351.8 1225.81 354.2 1235.81 354.2ZM1403.25 380C1394.45 380 1386.65 377.6 1379.85 372.8C1373.05 368 1367.75 361.5 1363.95 353.3C1360.15 344.9 1358.25 335.3 1358.25 324.5V160.7C1358.25 156.3 1359.65 152.7 1362.45 149.9C1365.25 147.1 1368.85 145.7 1373.25 145.7C1377.65 145.7 1381.25 147.1 1384.05 149.9C1386.85 152.7 1388.25 156.3 1388.25 160.7V324.5C1388.25 331.9 1389.65 338 1392.45 342.8C1395.25 347.6 1398.85 350 1403.25 350H1410.75C1414.75 350 1417.95 351.4 1420.35 354.2C1422.95 357 1424.25 360.6 1424.25 365C1424.25 369.4 1422.35 373 1418.55 375.8C1414.75 378.6 1409.85 380 1403.85 380H1403.25ZM1472.49 380C1468.09 380 1464.39 378.6 1461.39 375.8C1458.59 372.8 1457.19 369.1 1457.19 364.7V231.2C1457.19 226.6 1458.59 222.9 1461.39 220.1C1464.39 217.3 1468.09 215.9 1472.49 215.9C1477.09 215.9 1480.79 217.3 1483.59 220.1C1486.39 222.9 1487.79 226.6 1487.79 231.2V364.7C1487.79 369.1 1486.39 372.8 1483.59 375.8C1480.79 378.6 1477.09 380 1472.49 380ZM1472.49 189.2C1467.09 189.2 1462.39 187.3 1458.39 183.5C1454.59 179.5 1452.69 174.8 1452.69 169.4C1452.69 164 1454.59 159.4 1458.39 155.6C1462.39 151.6 1467.09 149.6 1472.49 149.6C1477.89 149.6 1482.49 151.6 1486.29 155.6C1490.29 159.4 1492.29 164 1492.29 169.4C1492.29 174.8 1490.29 179.5 1486.29 183.5C1482.49 187.3 1477.89 189.2 1472.49 189.2ZM1619.12 381.2C1602.92 381.2 1588.62 377.7 1576.22 370.7C1563.82 363.5 1554.02 353.7 1546.82 341.3C1539.82 328.7 1536.32 314.3 1536.32 298.1C1536.32 281.7 1539.82 267.3 1546.82 254.9C1554.02 242.3 1563.82 232.5 1576.22 225.5C1588.62 218.3 1602.92 214.7 1619.12 214.7C1635.12 214.7 1649.32 218.3 1661.72 225.5C1674.12 232.5 1683.82 242.3 1690.82 254.9C1698.02 267.3 1701.62 281.7 1701.62 298.1C1701.62 314.3 1698.12 328.7 1691.12 341.3C1684.12 353.7 1674.42 363.5 1662.02 370.7C1649.62 377.7 1635.32 381.2 1619.12 381.2ZM1619.12 354.2C1629.52 354.2 1638.72 351.8 1646.72 347C1654.72 342.2 1660.92 335.6 1665.32 327.2C1669.92 318.8 1672.22 309.1 1672.22 298.1C1672.22 287.1 1669.92 277.4 1665.32 269C1660.92 260.4 1654.72 253.7 1646.72 248.9C1638.72 244.1 1629.52 241.7 1619.12 241.7C1608.72 241.7 1599.52 244.1 1591.52 248.9C1583.52 253.7 1577.22 260.4 1572.62 269C1568.02 277.4 1565.72 287.1 1565.72 298.1C1565.72 309.1 1568.02 318.8 1572.62 327.2C1577.22 335.6 1583.52 342.2 1591.52 347C1599.52 351.8 1608.72 354.2 1619.12 354.2Z" fill="black"/>
<defs>
<filter id="filter0_d_106_18" x="60" y="82" width="408" height="408" filterUnits="userSpaceOnUse" color-interpolation-filters="sRGB">
<feFlood flood-opacity="0" result="BackgroundImageFix"/>
<feColorMatrix in="SourceAlpha" type="matrix" values="0 0 0 0 0 0 0 0 0 0 0 0 0 0 0 0 0 0 127 0" result="hardAlpha"/>
<feOffset dy="4"/>
<feGaussianBlur stdDeviation="2"/>
<feComposite in2="hardAlpha" operator="out"/>
<feColorMatrix type="matrix" values="0 0 0 0 0 0 0 0 0 0 0 0 0 0 0 0 0 0 0.25 0"/>
<feBlend mode="normal" in2="BackgroundImageFix" result="effect1_dropShadow_106_18"/>
<feBlend mode="normal" in="SourceGraphic" in2="effect1_dropShadow_106_18" result="shape"/>
</filter>
<filter id="filter1_d_106_18" x="119" y="150" width="300" height="274" filterUnits="userSpaceOnUse" color-interpolation-filters="sRGB">
<feFlood flood-opacity="0" result="BackgroundImageFix"/>
<feColorMatrix in="SourceAlpha" type="matrix" values="0 0 0 0 0 0 0 0 0 0 0 0 0 0 0 0 0 0 127 0" result="hardAlpha"/>
<feOffset dx="5" dy="5"/>
<feGaussianBlur stdDeviation="4"/>
<feComposite in2="hardAlpha" operator="out"/>
<feColorMatrix type="matrix" values="0 0 0 0 0 0 0 0 0 0 0 0 0 0 0 0 0 0 0.25 0"/>
<feBlend mode="normal" in2="BackgroundImageFix" result="effect1_dropShadow_106_18"/>
<feBlend mode="normal" in="SourceGraphic" in2="effect1_dropShadow_106_18" result="shape"/>
</filter>
<linearGradient id="paint0_linear_106_18" x1="107.686" y1="393.551" x2="373.856" y2="107.396" gradientUnits="userSpaceOnUse">
<stop stop-color="#FD047B"/>
<stop offset="0.5" stop-color="#FD4E64"/>
<stop offset="1" stop-color="#FE984E"/>
</linearGradient>
</defs>
</svg>
