<svg width="1803" height="564" viewBox="0 0 1803 564" fill="none" xmlns="http://www.w3.org/2000/svg">
<g filter="url(#filter0_d_114_11)">
<g filter="url(#filter1_d_114_11)">
<path d="M122 193C122 170.909 139.909 153 162 153H235C246.046 153 255 161.954 255 173V371C255 393.091 237.091 411 215 411H162C139.909 411 122 393.091 122 371V193Z" fill="url(#paint0_linear_114_11)"/>
<path d="M273 191C273 170.013 290.013 153 311 153C363.467 153 406 195.533 406 248V371C406 393.091 388.091 411 366 411H313C290.909 411 273 393.091 273 371V191Z" fill="url(#paint1_linear_114_11)"/>
</g>
</g>
<path d="M629.6 380.3C625.2 380.3 621.5 378.9 618.5 376.1C615.7 373.1 614.3 369.4 614.3 365V291.2C614.3 279.8 612.2 270.5 608 263.3C603.8 256.1 598.1 250.8 590.9 247.4C583.9 243.8 575.8 242 566.6 242C558.2 242 550.6 243.7 543.8 247.1C537 250.5 531.6 255.1 527.6 260.9C523.6 266.5 521.6 273 521.6 280.4H502.7C502.7 267.8 505.7 256.6 511.7 246.8C517.9 236.8 526.3 228.9 536.9 223.1C547.5 217.3 559.4 214.4 572.6 214.4C586.4 214.4 598.7 217.4 609.5 223.4C620.5 229.2 629.1 237.8 635.3 249.2C641.7 260.6 644.9 274.6 644.9 291.2V365C644.9 369.4 643.4 373.1 640.4 376.1C637.6 378.9 634 380.3 629.6 380.3ZM506.3 380.3C501.9 380.3 498.2 378.9 495.2 376.1C492.4 373.1 491 369.4 491 365V231.2C491 226.6 492.4 222.9 495.2 220.1C498.2 217.3 501.9 215.9 506.3 215.9C510.9 215.9 514.6 217.3 517.4 220.1C520.2 222.9 521.6 226.6 521.6 231.2V365C521.6 369.4 520.2 373.1 517.4 376.1C514.6 378.9 510.9 380.3 506.3 380.3ZM772.592 381.2C755.992 381.2 741.192 377.7 728.192 370.7C715.392 363.5 705.292 353.7 697.892 341.3C690.692 328.7 687.092 314.3 687.092 298.1C687.092 281.7 690.492 267.3 697.292 254.9C704.292 242.3 713.892 232.5 726.092 225.5C738.292 218.3 752.292 214.7 768.092 214.7C783.692 214.7 797.092 218.2 808.292 225.2C819.492 232 827.992 241.5 833.792 253.7C839.792 265.7 842.792 279.6 842.792 295.4C842.792 299.2 841.492 302.4 838.892 305C836.292 307.4 832.992 308.6 828.992 308.6H708.092V284.6H828.092L815.792 293C815.592 283 813.592 274.1 809.792 266.3C805.992 258.3 800.592 252 793.592 247.4C786.592 242.8 778.092 240.5 768.092 240.5C756.692 240.5 746.892 243 738.692 248C730.692 253 724.592 259.9 720.392 268.7C716.192 277.3 714.092 287.1 714.092 298.1C714.092 309.1 716.592 318.9 721.592 327.5C726.592 336.1 733.492 342.9 742.292 347.9C751.092 352.9 761.192 355.4 772.592 355.4C778.792 355.4 785.092 354.3 791.492 352.1C798.092 349.7 803.392 347 807.392 344C810.392 341.8 813.592 340.7 816.992 340.7C820.592 340.5 823.692 341.5 826.292 343.7C829.692 346.7 831.492 350 831.692 353.6C831.892 357.2 830.292 360.3 826.892 362.9C820.092 368.3 811.592 372.7 801.392 376.1C791.392 379.5 781.792 381.2 772.592 381.2ZM950.82 381.5C937.02 381.5 924.62 378.6 913.62 372.8C902.82 366.8 894.22 358.1 887.82 346.7C881.62 335.3 878.52 321.3 878.52 304.7V230.9C878.52 226.5 879.92 222.9 882.72 220.1C885.72 217.1 889.42 215.6 893.82 215.6C898.22 215.6 901.82 217.1 904.62 220.1C907.62 222.9 909.12 226.5 909.12 230.9V304.7C909.12 315.9 911.22 325.2 915.42 332.6C919.62 339.8 925.32 345.2 932.52 348.8C939.72 352.2 947.82 353.9 956.82 353.9C965.42 353.9 973.02 352.2 979.62 348.8C986.42 345.4 991.82 340.8 995.82 335C999.82 329.2 1001.82 322.7 1001.82 315.5H1020.72C1020.72 327.9 1017.62 339.1 1011.42 349.1C1005.42 359.1 997.12 367 986.52 372.8C976.12 378.6 964.22 381.5 950.82 381.5ZM1017.12 380C1012.72 380 1009.02 378.6 1006.02 375.8C1003.22 372.8 1001.82 369.1 1001.82 364.7V230.9C1001.82 226.3 1003.22 222.6 1006.02 219.8C1009.02 217 1012.72 215.6 1017.12 215.6C1021.72 215.6 1025.42 217 1028.22 219.8C1031.02 222.6 1032.42 226.3 1032.42 230.9V364.7C1032.42 369.1 1031.02 372.8 1028.22 375.8C1025.42 378.6 1021.72 380 1017.12 380ZM1168.81 381.2C1153.21 381.2 1139.21 377.6 1126.81 370.4C1114.41 363 1104.61 353 1097.41 340.4C1090.21 327.8 1086.51 313.6 1086.31 297.8V161C1086.31 156.4 1087.71 152.7 1090.51 149.9C1093.51 147.1 1097.21 145.7 1101.61 145.7C1106.21 145.7 1109.91 147.1 1112.71 149.9C1115.51 152.7 1116.91 156.4 1116.91 161V242C1123.91 233.6 1132.31 227 1142.11 222.2C1152.11 217.2 1163.01 214.7 1174.81 214.7C1189.41 214.7 1202.51 218.4 1214.11 225.8C1225.71 233 1234.81 242.9 1241.41 255.5C1248.21 267.9 1251.61 282 1251.61 297.8C1251.61 313.6 1247.91 327.8 1240.51 340.4C1233.31 353 1223.51 363 1211.11 370.4C1198.71 377.6 1184.61 381.2 1168.81 381.2ZM1168.81 354.2C1179.01 354.2 1188.11 351.8 1196.11 347C1204.11 342 1210.41 335.2 1215.01 326.6C1219.81 318 1222.21 308.4 1222.21 297.8C1222.21 287 1219.81 277.4 1215.01 269C1210.41 260.6 1204.11 254 1196.11 249.2C1188.11 244.2 1179.01 241.7 1168.81 241.7C1158.81 241.7 1149.71 244.2 1141.51 249.2C1133.51 254 1127.21 260.6 1122.61 269C1118.01 277.4 1115.71 287 1115.71 297.8C1115.71 308.4 1118.01 318 1122.61 326.6C1127.21 335.2 1133.51 342 1141.51 347C1149.71 351.8 1158.81 354.2 1168.81 354.2ZM1336.25 380C1327.45 380 1319.65 377.6 1312.85 372.8C1306.05 368 1300.75 361.5 1296.95 353.3C1293.15 344.9 1291.25 335.3 1291.25 324.5V160.7C1291.25 156.3 1292.65 152.7 1295.45 149.9C1298.25 147.1 1301.85 145.7 1306.25 145.7C1310.65 145.7 1314.25 147.1 1317.05 149.9C1319.85 152.7 1321.25 156.3 1321.25 160.7V324.5C1321.25 331.9 1322.65 338 1325.45 342.8C1328.25 347.6 1331.85 350 1336.25 350H1343.75C1347.75 350 1350.95 351.4 1353.35 354.2C1355.95 357 1357.25 360.6 1357.25 365C1357.25 369.4 1355.35 373 1351.55 375.8C1347.75 378.6 1342.85 380 1336.85 380H1336.25ZM1405.49 380C1401.09 380 1397.39 378.6 1394.39 375.8C1391.59 372.8 1390.19 369.1 1390.19 364.7V231.2C1390.19 226.6 1391.59 222.9 1394.39 220.1C1397.39 217.3 1401.09 215.9 1405.49 215.9C1410.09 215.9 1413.79 217.3 1416.59 220.1C1419.39 222.9 1420.79 226.6 1420.79 231.2V364.7C1420.79 369.1 1419.39 372.8 1416.59 375.8C1413.79 378.6 1410.09 380 1405.49 380ZM1405.49 189.2C1400.09 189.2 1395.39 187.3 1391.39 183.5C1387.59 179.5 1385.69 174.8 1385.69 169.4C1385.69 164 1387.59 159.4 1391.39 155.6C1395.39 151.6 1400.09 149.6 1405.49 149.6C1410.89 149.6 1415.49 151.6 1419.29 155.6C1423.29 159.4 1425.29 164 1425.29 169.4C1425.29 174.8 1423.29 179.5 1419.29 183.5C1415.49 187.3 1410.89 189.2 1405.49 189.2ZM1552.12 381.2C1535.92 381.2 1521.62 377.7 1509.22 370.7C1496.82 363.5 1487.02 353.7 1479.82 341.3C1472.82 328.7 1469.32 314.3 1469.32 298.1C1469.32 281.7 1472.82 267.3 1479.82 254.9C1487.02 242.3 1496.82 232.5 1509.22 225.5C1521.62 218.3 1535.92 214.7 1552.12 214.7C1568.12 214.7 1582.32 218.3 1594.72 225.5C1607.12 232.5 1616.82 242.3 1623.82 254.9C1631.02 267.3 1634.62 281.7 1634.62 298.1C1634.62 314.3 1631.12 328.7 1624.12 341.3C1617.12 353.7 1607.42 363.5 1595.02 370.7C1582.62 377.7 1568.32 381.2 1552.12 381.2ZM1552.12 354.2C1562.52 354.2 1571.72 351.8 1579.72 347C1587.72 342.2 1593.92 335.6 1598.32 327.2C1602.92 318.8 1605.22 309.1 1605.22 298.1C1605.22 287.1 1602.92 277.4 1598.32 269C1593.92 260.4 1587.72 253.7 1579.72 248.9C1571.72 244.1 1562.52 241.7 1552.12 241.7C1541.72 241.7 1532.52 244.1 1524.52 248.9C1516.52 253.7 1510.22 260.4 1505.62 269C1501.02 277.4 1498.72 287.1 1498.72 298.1C1498.72 309.1 1501.02 318.8 1505.62 327.2C1510.22 335.6 1516.52 342.2 1524.52 347C1532.52 351.8 1541.72 354.2 1552.12 354.2Z" fill="black"/>
<defs>
<filter id="filter0_d_114_11" x="118" y="153" width="292" height="266" filterUnits="userSpaceOnUse" color-interpolation-filters="sRGB">
<feFlood flood-opacity="0" result="BackgroundImageFix"/>
<feColorMatrix in="SourceAlpha" type="matrix" values="0 0 0 0 0 0 0 0 0 0 0 0 0 0 0 0 0 0 127 0" result="hardAlpha"/>
<feOffset dy="4"/>
<feGaussianBlur stdDeviation="2"/>
<feComposite in2="hardAlpha" operator="out"/>
<feColorMatrix type="matrix" values="0 0 0 0 0 0 0 0 0 0 0 0 0 0 0 0 0 0 0.25 0"/>
<feBlend mode="normal" in2="BackgroundImageFix" result="effect1_dropShadow_114_11"/>
<feBlend mode="normal" in="SourceGraphic" in2="effect1_dropShadow_114_11" result="shape"/>
</filter>
<filter id="filter1_d_114_11" x="119" y="150" width="300" height="274" filterUnits="userSpaceOnUse" color-interpolation-filters="sRGB">
<feFlood flood-opacity="0" result="BackgroundImageFix"/>
<feColorMatrix in="SourceAlpha" type="matrix" values="0 0 0 0 0 0 0 0 0 0 0 0 0 0 0 0 0 0 127 0" result="hardAlpha"/>
<feOffset dx="5" dy="5"/>
<feGaussianBlur stdDeviation="4"/>
<feComposite in2="hardAlpha" operator="out"/>
<feColorMatrix type="matrix" values="0 0 0 0 0 0 0 0 0 0 0 0 0 0 0 0 0 0 0.25 0"/>
<feBlend mode="normal" in2="BackgroundImageFix" result="effect1_dropShadow_114_11"/>
<feBlend mode="normal" in="SourceGraphic" in2="effect1_dropShadow_114_11" result="shape"/>
</filter>
<linearGradient id="paint0_linear_114_11" x1="188.5" y1="153" x2="188.5" y2="411" gradientUnits="userSpaceOnUse">
<stop stop-color="#FD047B"/>
<stop offset="1" stop-color="#FE934F"/>
</linearGradient>
<linearGradient id="paint1_linear_114_11" x1="339.5" y1="153" x2="339.5" y2="411" gradientUnits="userSpaceOnUse">
<stop stop-color="#FD047B"/>
<stop offset="1" stop-color="#FE934F"/>
</linearGradient>
</defs>
</svg>
